<?xml version="1.0" encoding="UTF-8" standalone="no"?>
<!-- Created with Inkscape (http://www.inkscape.org/) -->
<svg
   xmlns:svg="http://www.w3.org/2000/svg"
   xmlns="http://www.w3.org/2000/svg"
   version="1.0"
   width="350"
   height="100"
   id="svg2564">
  <defs
     id="defs2566" />
  <path
     d="M 257.17649,34.7223 C 257.17649,34.029447 257.40413,33.683021 257.70107,33.554353 C 258.00789,33.40587 258.18607,33.366292 258.64135,33.158441 C 259.17584,32.910987 259.45299,32.623954 258.85911,31.663858 C 258.32462,30.822548 256.7113,28.318408 255.94915,27.12079 C 255.36518,26.180483 255.33551,25.616324 255.33551,25.081837 L 255.33551,23.023095 C 255.33551,19.341101 252.86104,14.807915 250.08965,13.481604 C 246.7739,11.868259 242.68611,12.115714 237.11365,14.293242 C 231.55109,16.460838 227.59197,20.142832 220.64371,22.874637 C 209.28102,27.338522 199.50201,24.923472 198.6211,19.123368 C 204.42123,19.123368 209.04348,17.549602 211.70601,16.223316 C 214.37839,14.887097 225.99842,10.146061 229.00735,9.3344225 C 263.76842,-0.08825704 267.9156,33.40587 260.33388,42.591028 C 259.68063,43.46206 260.06664,43.521427 260.69021,43.58082 C 261.31376,43.640214 314.24721,49.242349 314.24721,49.242349 L 314.58373,50.014384 L 255.08805,50.014384 C 253.28665,50.014384 251.21802,48.767255 250.37671,47.638912 C 249.53538,46.500662 246.57596,42.21493 246.57596,42.21493 C 249.53538,42.452478 253.1481,42.591028 254.12796,42.591028 C 255.75121,42.591028 257.17649,41.541867 257.17649,40.116584 L 257.17649,34.7223 z M 216.1501,54.91381 C 217.34775,55.586848 219.98056,55.428483 220.99014,55.220632 C 222.59357,54.91381 240.4888,52.597706 242.52775,52.647217 C 241.24104,51.330788 238.19251,48.232792 237.59865,47.609215 C 236.18325,46.114657 234.71839,45.372319 231.25415,45.936503 C 224.36528,47.074753 217.0706,49.776836 212.80465,51.627728 L 216.1501,54.91381 z M 159.04972,91.426776 C 156.06057,92.72339 154.84314,92.663997 153.06155,90.882406 C 151.76494,89.575884 148.08294,85.992887 148.08294,85.992887 C 204.59938,61.970925 311.29764,52.54822 340.04085,53.211376 L 340.51595,54.270444 C 290.69043,57.081431 200.4522,72.393304 159.04972,91.426776"
     id="path2638"
     style="fill:#af1634;fill-opacity:1;fill-rule:nonzero;stroke:none" />
  <path
     d="M 30.358512,24.695807 L 28.636314,24.735411 L 21.470294,24.775015 L 19.530338,24.775015 L 12.730534,24.735411 C 12.750324,24.735411 11.295369,24.695807 11.295369,24.695807 L 10.701489,24.676018 L 9.4840563,32.188463 L 10.315484,32.168648 C 11.404223,32.119163 11.859528,32.089466 12.334622,31.693554 C 12.720652,31.416428 12.977989,30.931427 13.314508,30.100024 C 13.324415,30.090117 13.77972,28.902381 13.77972,28.902381 C 13.858877,28.71432 14.046939,28.219436 14.136028,28.110557 C 14.155818,28.110557 14.185514,28.100675 14.185514,28.100675 C 14.729909,28.001678 15.98692,27.971982 17.689329,27.971982 C 17.521082,29.337897 16.066102,41.254834 16.066102,41.254834 C 15.60089,44.778464 15.28416,45.995896 14.403272,47.431061 L 13.750024,48.500036 L 16.432318,48.430736 L 16.699561,48.430736 L 20.282558,48.47034 L 20.510198,48.47034 C 21.589081,48.47034 22.143357,48.401039 22.697634,47.777487 C 23.073731,47.411272 23.2717,47.084635 23.58843,46.282929 L 23.964552,45.35253 L 22.083964,45.35253 C 21.420808,45.382226 20.955621,45.372319 20.579499,45.33274 C 20.67847,44.907132 20.797257,44.372644 20.797257,44.372644 C 21.024896,43.402666 21.341626,41.462685 21.499991,40.077006 C 21.499991,40.077006 22.677819,30.44645 22.984667,27.932403 C 24.736562,27.952192 26.349906,27.981889 26.825001,28.080861 C 26.894301,28.476773 26.963576,29.605115 27.022969,30.565211 C 27.022969,30.585001 27.14173,32.178556 27.14173,32.178556 L 27.785097,32.168648 C 29.527109,32.119163 30.150661,31.555004 30.388208,29.862477 L 31.160243,24.676018 L 30.358512,24.695807 z M 58.933474,45.283229 C 59.022538,44.857646 59.121535,44.432038 59.121535,44.432038 C 59.121535,44.42213 59.359082,42.878086 59.359082,42.878086 C 59.349175,42.917665 59.844059,39.50294 59.844059,39.50294 C 59.844059,39.512822 60.576515,33.781993 60.576515,33.781993 C 60.576515,33.781993 61.299038,28.417405 61.299038,28.417405 C 61.299038,28.387708 61.586071,26.447727 61.605886,26.41803 C 61.605886,26.388334 61.625675,26.269573 61.625675,26.269573 L 62.031469,24.705714 L 61.120884,24.695807 L 59.398661,24.735411 L 57.478494,24.775015 L 56.577791,24.775015 L 55.538513,24.8245 C 55.112904,24.873986 54.687321,25.081837 54.340895,25.438145 C 53.97468,25.853872 53.776711,26.200298 53.499585,26.972307 L 53.153159,27.922496 L 55.053537,27.853221 C 55.053537,27.853221 55.746363,27.882917 56.340244,27.922496 C 56.261062,28.377801 56.171972,28.833106 56.171972,28.833106 C 56.171972,28.833106 55.86515,31.267971 55.86515,31.267971 L 55.825546,31.5154 C 55.825546,31.5154 55.54842,33.603839 55.409845,34.652999 L 46.729478,34.652999 C 46.778964,34.227391 46.82845,33.772111 46.82845,33.772111 C 46.82845,33.7919 47.184783,31.109606 47.184783,31.109606 L 47.550998,28.377801 C 47.550998,28.387708 47.887517,26.467516 47.887517,26.467516 C 47.897425,26.398241 48.065671,25.57672 48.065671,25.57672 L 48.233943,24.735411 L 47.372844,24.695807 L 45.700107,24.735411 L 43.740336,24.775015 L 42.839659,24.775015 C 41.760776,24.775015 41.226314,24.834382 40.632434,25.428263 C 40.276125,25.824175 40.088064,26.160694 39.761427,26.952518 L 39.345726,27.932403 L 41.305497,27.853221 C 41.305497,27.853221 42.018138,27.892799 42.631783,27.922496 C 42.443721,28.852895 42.265567,29.981238 42.087413,31.5154 L 40.820495,41.551775 C 40.66213,43.105726 40.394886,44.540916 40.187036,45.382226 C 40.196943,45.362437 39.543669,47.153935 39.543669,47.153935 C 39.513973,47.233118 39.405119,47.579544 39.405119,47.579544 L 39.098272,48.490129 L 41.453954,48.430736 L 41.760776,48.430736 L 44.700432,48.47034 L 44.967676,48.47034 C 45.977258,48.47034 46.561231,48.361461 47.12539,47.747791 C 47.471816,47.440968 47.669785,47.114332 48.006303,46.282929 L 48.382401,45.35253 L 46.650296,45.35253 C 46.650296,45.35253 45.868379,45.312926 45.225012,45.283229 C 45.323984,44.857646 45.413074,44.432038 45.413074,44.432038 C 45.413074,44.42213 45.650621,42.878086 45.650621,42.878086 C 45.640714,42.917665 46.135623,39.50294 46.135623,39.50294 C 46.135623,39.512822 46.244476,38.622026 46.333566,38.008356 L 55.004051,38.008356 C 54.875357,39.047635 54.578442,41.561682 54.578442,41.561682 C 54.390381,42.907757 54.123137,44.392434 53.895497,45.33274 C 53.727225,46.035475 53.539164,46.530358 53.252131,47.153935 C 53.222434,47.243 53.103673,47.579544 53.103673,47.579544 L 52.806733,48.490129 L 55.172297,48.430736 L 55.469238,48.430736 L 58.438565,48.47034 L 58.676112,48.47034 C 59.695601,48.47034 60.269667,48.361461 60.833851,47.747791 C 61.180277,47.440968 61.388128,47.114332 61.71474,46.282929 L 62.090862,45.35253 L 60.358757,45.35253 C 60.358757,45.35253 59.576815,45.312926 58.933474,45.283229 M 91.061736,45.26344 C 90.863768,44.263765 87.043224,24.676018 87.043224,24.676018 L 86.439461,24.695807 L 84.727145,24.735411 L 81.510338,24.775015 C 80.421599,24.775015 80.025687,24.804686 79.570382,25.042233 C 79.055684,25.200598 78.5608,25.685599 78.03622,26.596184 C 77.996616,26.675392 77.877855,26.932728 77.877855,26.932728 L 77.452247,27.912614 C 77.452247,27.912614 79.590171,27.853221 80.31272,27.833431 C 79.412017,29.565537 73.938525,40.106702 73.938525,40.106702 C 73.908828,40.146281 73.097215,41.700232 73.097215,41.700232 C 73.087308,41.700232 71.374992,44.907132 71.374992,44.907132 L 70.365435,46.629355 C 70.365435,46.639237 69.078702,48.440643 69.078702,48.440643 L 70.395106,48.47034 L 72.473663,48.430736 L 74.700652,48.480222 L 74.849135,47.955641 C 75.017382,47.262814 75.225232,46.748116 75.878506,45.322833 C 75.878506,45.322833 78.164888,40.403617 78.164888,40.403617 C 78.164888,40.393735 78.362857,39.948338 78.521222,39.611793 L 84.657845,39.611793 C 84.786513,40.304646 85.053756,41.720047 85.053756,41.720047 C 85.509062,44.293462 85.726819,45.916688 85.726819,46.827299 L 85.667426,48.460432 L 86.409764,48.47034 L 87.785562,48.430736 L 88.05278,48.430736 C 88.032991,48.430736 90.368884,48.47034 90.368884,48.47034 L 90.606431,48.47034 C 91.625895,48.47034 92.239565,48.361461 92.793842,47.747791 C 93.140268,47.440968 93.348119,47.114332 93.67473,46.282929 L 94.050853,45.35253 L 92.516691,45.35253 C 92.516691,45.35253 91.418045,45.283229 91.061736,45.26344 M 83.123682,30.050538 C 83.291955,31.248156 83.480016,32.633861 83.480016,32.633861 C 83.480016,32.614046 84.004596,35.890221 84.004596,35.890221 L 84.024385,35.979311 C 84.024385,35.979311 84.083778,36.226765 84.123357,36.414801 L 80.075173,36.414801 C 80.639332,35.227091 82.094311,32.198345 83.123682,30.050538 M 117.60763,41.39341 C 117.2612,41.680443 117.02365,42.135748 116.66732,42.977058 C 116.67723,42.957269 116.13286,44.105401 116.13286,44.105401 C 115.85571,44.728978 115.74683,44.877435 115.70725,44.917014 C 115.50928,45.0358 114.70758,45.085286 113.31196,45.085286 C 113.31196,45.085286 110.70885,45.016011 110.65937,45.016011 C 110.96619,43.58082 111.29283,41.581471 111.55016,39.582097 C 111.55016,39.582097 112.23311,33.772111 112.23311,33.772111 L 112.99523,28.466891 C 112.98535,28.476773 113.21299,27.34843 113.21299,27.34843 C 113.2229,27.279155 113.47033,25.814268 113.47033,25.814268 L 113.29217,26.12109 L 114.14339,24.606743 L 112.93587,24.735411 L 111.21364,24.735411 C 111.20374,24.735411 108.80847,24.775015 108.80847,24.775015 L 107.73952,24.775015 L 106.70025,24.8245 C 106.27464,24.873986 105.85894,25.081837 105.5026,25.438145 C 105.15618,25.824175 104.96814,26.160694 104.6316,26.952518 L 104.2159,27.932403 L 106.17567,27.843313 C 106.17567,27.843313 107.01698,27.902706 107.67022,27.94231 C 107.49207,28.912288 107.30401,30.090117 107.14564,31.525307 L 105.88863,41.551775 C 105.66097,43.412548 105.35415,45.0358 105.06711,46.035475 C 105.06711,46.025567 104.48314,47.520151 104.48314,47.520151 L 104.10702,48.480222 L 105.15618,48.47034 C 105.15618,48.47034 108.05625,48.351553 108.07604,48.351553 C 108.07604,48.361461 108.35317,48.391157 108.35317,48.391157 C 108.42247,48.391157 118.49842,48.47034 118.49842,48.47034 L 119.07249,48.47034 L 120.50768,40.957894 L 119.69607,40.957894 C 118.59739,40.957894 118.0926,40.987591 117.60763,41.39341 M 149.2014,24.735411 L 146.59827,24.685925 L 146.42011,25.151112 C 146.17266,25.873661 145.90544,26.388334 145.14329,27.665159 C 145.1334,27.675067 142.4016,32.297317 142.4016,32.297317 C 142.4016,32.307224 141.56029,33.683021 140.91695,34.732182 C 140.62989,33.940358 140.32307,33.128744 140.32307,33.128744 C 140.32307,33.118837 139.7193,31.475822 139.7193,31.475822 C 138.86809,29.189414 138.17524,27.199972 137.86841,26.140905 C 137.85853,26.111208 137.65066,25.250109 137.65066,25.250109 L 137.52199,24.715621 L 136.93801,24.695807 L 135.2257,24.735411 C 135.20591,24.735411 133.83011,24.775015 133.83011,24.775015 L 133.12738,24.775015 L 132.11779,24.8245 C 131.63279,24.873986 131.21709,25.091744 130.90036,25.467842 C 130.51436,25.834057 130.3263,26.21018 130.01947,26.952518 L 129.60375,27.932403 L 131.48434,27.843313 C 131.48434,27.843313 132.24646,27.922496 132.69186,27.9621 C 132.96901,28.664834 136.92813,38.532937 137.04689,38.829877 C 137.0172,39.136699 136.72028,41.561682 136.72028,41.561682 C 136.51243,43.382852 136.20558,45.025893 135.90864,46.025567 C 135.89876,46.065171 135.37418,47.500336 135.37418,47.500336 L 135.02775,48.440643 L 136.02743,48.47034 L 137.40323,48.430736 L 137.71005,48.430736 L 140.71898,48.47034 L 140.95653,48.47034 C 141.96611,48.47034 142.54017,48.361461 143.10436,47.747791 C 143.45078,47.440968 143.65864,47.114332 143.99515,46.282929 L 144.36137,45.35253 L 142.58966,45.35253 C 142.58966,45.35253 141.78795,45.303044 141.1545,45.283229 C 141.23368,44.847739 141.32274,44.42213 141.32274,44.42213 C 141.31286,44.432038 141.65929,42.600935 141.65929,42.600935 L 141.88693,41.383503 C 141.88693,41.363713 142.07499,40.185885 142.07499,40.185885 C 142.07499,40.195767 142.22344,39.314878 142.28284,38.998149 C 142.45108,38.760602 146.63787,32.623954 146.63787,32.623954 C 146.61808,32.633861 147.65733,31.188763 147.65733,31.188763 L 149.83486,28.130346 C 150.9533,26.50712 151.06218,26.388334 151.58676,25.853872 L 152.7844,24.656228 L 151.07208,24.695807 L 149.2014,24.735411 z M 177.39033,25.45796 C 175.19302,24.666136 173.0254,24.280106 170.77859,24.280106 C 168.23487,24.280106 166.07713,24.982865 164.53309,26.309151 C 162.95935,27.635463 161.89037,29.83278 161.89037,31.752947 C 161.89037,33.306899 162.52383,34.702485 163.66208,35.662581 C 164.30543,36.187161 164.89931,36.553377 166.07713,37.167047 C 166.05735,37.157139 169.54137,39.067424 169.54137,39.067424 C 170.45198,39.522729 170.7588,39.73058 171.2042,40.077006 C 171.81787,40.591679 172.1643,41.363713 172.1643,42.21493 C 172.1643,44.907132 169.35331,45.204072 168.14578,45.204072 L 166.15632,45.016011 C 165.16655,44.778464 164.83991,44.639888 164.73103,44.590402 C 164.62215,44.273673 164.55288,42.927572 164.5133,42.106052 C 164.5133,42.106052 164.4737,41.195441 164.4737,41.195441 L 164.444,40.542193 L 163.79075,40.542193 C 162.04874,40.542193 161.40537,41.106377 161.17773,42.84839 C 161.17773,42.838482 160.56406,46.847088 160.56406,46.847088 L 160.48488,47.391483 L 160.99958,47.589426 C 163.33545,48.460432 165.14676,48.806858 167.26487,48.806858 C 173.065,48.767255 177.11318,45.441594 177.11318,40.730254 C 177.15279,38.18651 176.04423,36.632559 173.00561,35.009333 C 173.00561,35.009333 172.27318,34.623303 172.27318,34.623303 C 172.29297,34.63321 168.73964,32.683347 168.73964,32.683347 C 168.27445,32.445799 167.77957,32.109281 167.38366,31.743065 C 166.83926,31.297642 166.6908,30.961123 166.6908,30.258389 C 166.6908,28.684623 168.16557,27.655252 170.43217,27.655252 C 171.54072,27.655252 172.66909,27.87301 173.61928,28.25904 C 173.61928,28.25904 173.65886,28.278829 173.69846,28.298618 C 173.76773,28.635137 173.88652,29.595233 173.9558,31.703461 L 173.98549,32.396314 L 174.66844,32.35671 C 176.45003,32.257738 177.05382,31.713369 177.29134,30.010935 L 177.90501,25.655903 L 177.39033,25.45796 z"
     id="path2632"
     style="fill:#000000;fill-opacity:1;fill-rule:nonzero;stroke:none" />
</svg>
